%FSLAX43Y43*%
%MOMM*%
G71*
G01*
G75*
%ADD10R,0.950X1.400*%
%ADD11R,0.900X1.400*%
%ADD12R,1.600X2.100*%
%ADD13O,2.000X0.600*%
%ADD14R,3.300X1.050*%
%ADD15R,1.050X2.950*%
%ADD16R,10.600X9.000*%
%ADD17R,0.600X1.550*%
%ADD18R,1.400X0.950*%
%ADD19R,1.050X3.300*%
%ADD20R,1.800X2.250*%
%ADD21R,1.050X1.400*%
%ADD22R,1.800X2.250*%
%ADD23R,2.100X1.600*%
%ADD24R,2.250X1.800*%
%ADD25C,0.800*%
%ADD26C,1.600*%
%ADD27C,2.000*%
%ADD28C,1.000*%
%ADD29C,0.500*%
%ADD30C,0.400*%
%ADD31C,0.700*%
%ADD32C,3.000*%
%ADD33C,1.500*%
%ADD34C,1.800*%
%ADD35C,0.600*%
%ADD36R,5.000X8.175*%
%ADD37C,0.254*%
%ADD38C,0.152*%
%ADD39R,1.524X1.524*%
%ADD40R,3.064X3.064*%
%ADD41O,1.600X2.300*%
%ADD42C,1.200*%
%ADD43R,1.524X1.524*%
%ADD44C,2.032*%
%ADD45C,1.524*%
%ADD46C,0.250*%
%ADD47C,0.200*%
%ADD48C,0.305*%
G36*
X19812Y113792D02*
X19177Y113157D01*
Y114427D01*
X19812Y113792D01*
D02*
G37*
G36*
Y121539D02*
X19177Y120904D01*
Y122174D01*
X19812Y121539D01*
D02*
G37*
D35*
X9376Y108913D02*
G03*
X9376Y108913I-300J0D01*
G01*
D37*
X18250Y85979D02*
G03*
X18250Y85979I-1867J0D01*
G01*
X14440D02*
G03*
X14440Y85979I-1867J0D01*
G01*
X10757D02*
G03*
X10757Y85979I-1867J0D01*
G01*
X18935Y11430D02*
G03*
X18935Y11430I-1867J0D01*
G01*
X14440D02*
G03*
X14440Y11430I-1867J0D01*
G01*
X9944D02*
G03*
X9944Y11430I-1867J0D01*
G01*
X14542Y87868D02*
X18224D01*
Y84113D02*
Y87868D01*
X14542Y84113D02*
Y87868D01*
Y84113D02*
X18224D01*
X10732Y87868D02*
X14414D01*
Y84113D02*
Y87868D01*
X10732Y84113D02*
Y87868D01*
Y84113D02*
X14414D01*
X7049Y87868D02*
X10731D01*
Y84113D02*
Y87868D01*
X7049Y84113D02*
Y87868D01*
Y84113D02*
X10731D01*
X15228Y13319D02*
X18910D01*
Y9564D02*
Y13319D01*
X15228Y9564D02*
Y13319D01*
Y9564D02*
X18910D01*
X10732Y13319D02*
X14414D01*
Y9564D02*
Y13319D01*
X10732Y9564D02*
Y13319D01*
Y9564D02*
X14414D01*
X6236Y13319D02*
X9918D01*
Y9564D02*
Y13319D01*
X6236Y9564D02*
Y13319D01*
Y9564D02*
X9918D01*
X825Y147850D02*
X2150D01*
X22900Y147950D02*
X24350D01*
X23650Y147250D02*
Y148650D01*
X17076Y96250D02*
X18600D01*
Y97266D01*
X17076Y97774D02*
X18600D01*
Y98535D01*
X18346Y98789D01*
X17330D01*
X17076Y98535D01*
Y97774D01*
Y100313D02*
X17330Y99805D01*
X17838Y99297D01*
X18346D01*
X18600Y99551D01*
Y100059D01*
X18346Y100313D01*
X18092D01*
X17838Y100059D01*
Y99297D01*
X16951Y100950D02*
X18475D01*
Y101966D01*
X16951Y102474D02*
X18475D01*
Y103235D01*
X18221Y103489D01*
X17205D01*
X16951Y103235D01*
Y102474D01*
Y103997D02*
Y105013D01*
X17205D01*
X18221Y103997D01*
X18475D01*
X19075Y92949D02*
Y91425D01*
X20091D01*
X20599Y92949D02*
Y91425D01*
X21360D01*
X21614Y91679D01*
Y92695D01*
X21360Y92949D01*
X20599D01*
X23138D02*
X22122D01*
Y92187D01*
X22630Y92441D01*
X22884D01*
X23138Y92187D01*
Y91679D01*
X22884Y91425D01*
X22376D01*
X22122Y91679D01*
X17001Y105725D02*
X18525D01*
Y106741D01*
X17001Y107249D02*
X18525D01*
Y108010D01*
X18271Y108264D01*
X17255D01*
X17001Y108010D01*
Y107249D01*
X17255Y108772D02*
X17001Y109026D01*
Y109534D01*
X17255Y109788D01*
X17509D01*
X17763Y109534D01*
X18017Y109788D01*
X18271D01*
X18525Y109534D01*
Y109026D01*
X18271Y108772D01*
X18017D01*
X17763Y109026D01*
X17509Y108772D01*
X17255D01*
X17763Y109026D02*
Y109534D01*
X3800Y145349D02*
X4308D01*
X4054D01*
Y143825D01*
X3800D01*
X4308D01*
X6085Y145095D02*
X5831Y145349D01*
X5324D01*
X5070Y145095D01*
Y144079D01*
X5324Y143825D01*
X5831D01*
X6085Y144079D01*
X6593Y143825D02*
X7101D01*
X6847D01*
Y145349D01*
X6593Y145095D01*
X5677Y11569D02*
X5169D01*
X5423D01*
Y10300D01*
X5169Y10046D01*
X4915D01*
X4661Y10300D01*
X6184Y10046D02*
X6692D01*
X6438D01*
Y11569D01*
X6184Y11315D01*
X1651Y105740D02*
Y104216D01*
X2667D01*
X3175Y105740D02*
Y104216D01*
X3936D01*
X4190Y104470D01*
Y105486D01*
X3936Y105740D01*
X3175D01*
X5714Y104216D02*
X4698D01*
X5714Y105232D01*
Y105486D01*
X5460Y105740D01*
X4952D01*
X4698Y105486D01*
X1651Y102946D02*
Y101422D01*
X2667D01*
X3175Y102946D02*
Y101422D01*
X3936D01*
X4190Y101676D01*
Y102692D01*
X3936Y102946D01*
X3175D01*
X4698Y102692D02*
X4952Y102946D01*
X5460D01*
X5714Y102692D01*
Y102438D01*
X5460Y102184D01*
X5206D01*
X5460D01*
X5714Y101930D01*
Y101676D01*
X5460Y101422D01*
X4952D01*
X4698Y101676D01*
X1651Y100279D02*
Y98755D01*
X2667D01*
X3175Y100279D02*
Y98755D01*
X3936D01*
X4190Y99009D01*
Y100025D01*
X3936Y100279D01*
X3175D01*
X5460Y98755D02*
Y100279D01*
X4698Y99517D01*
X5714D01*
X4700Y114799D02*
Y113275D01*
X5716D01*
X6224Y114799D02*
Y113275D01*
X6985D01*
X7239Y113529D01*
Y114545D01*
X6985Y114799D01*
X6224D01*
X7747Y113275D02*
X8255D01*
X8001D01*
Y114799D01*
X7747Y114545D01*
X550Y142400D02*
Y143924D01*
X1312D01*
X1566Y143670D01*
Y143162D01*
X1312Y142908D01*
X550D01*
X2074Y143924D02*
Y142400D01*
X2835D01*
X3089Y142654D01*
Y142908D01*
X2835Y143162D01*
X2074D01*
X2835D01*
X3089Y143416D01*
Y143670D01*
X2835Y143924D01*
X2074D01*
X3597Y142400D02*
X4105D01*
X3851D01*
Y143924D01*
X3597Y143670D01*
X19431Y143561D02*
Y145084D01*
X20193D01*
X20447Y144830D01*
Y144323D01*
X20193Y144069D01*
X19431D01*
X20955Y145084D02*
Y143561D01*
X21716D01*
X21970Y143815D01*
Y144069D01*
X21716Y144323D01*
X20955D01*
X21716D01*
X21970Y144576D01*
Y144830D01*
X21716Y145084D01*
X20955D01*
X23494Y143561D02*
X22478D01*
X23494Y144576D01*
Y144830D01*
X23240Y145084D01*
X22732D01*
X22478Y144830D01*
X4725Y123350D02*
Y124874D01*
X5487D01*
X5741Y124620D01*
Y124112D01*
X5487Y123858D01*
X4725D01*
X6249Y124874D02*
Y123350D01*
X7010D01*
X7264Y123604D01*
Y123858D01*
X7010Y124112D01*
X6249D01*
X7010D01*
X7264Y124366D01*
Y124620D01*
X7010Y124874D01*
X6249D01*
X7772Y124620D02*
X8026Y124874D01*
X8534D01*
X8788Y124620D01*
Y124366D01*
X8534Y124112D01*
X8280D01*
X8534D01*
X8788Y123858D01*
Y123604D01*
X8534Y123350D01*
X8026D01*
X7772Y123604D01*
X1500Y125875D02*
Y127399D01*
X2262D01*
X2516Y127145D01*
Y126637D01*
X2262Y126383D01*
X1500D01*
X2008D02*
X2516Y125875D01*
X3024Y127145D02*
X3277Y127399D01*
X3785D01*
X4039Y127145D01*
Y126891D01*
X3785Y126637D01*
X3531D01*
X3785D01*
X4039Y126383D01*
Y126129D01*
X3785Y125875D01*
X3277D01*
X3024Y126129D01*
X24050Y127675D02*
X22526D01*
Y128437D01*
X22780Y128691D01*
X23288D01*
X23542Y128437D01*
Y127675D01*
Y128183D02*
X24050Y128691D01*
Y129960D02*
X22526D01*
X23288Y129199D01*
Y130214D01*
X10725Y121425D02*
Y122949D01*
X11487D01*
X11741Y122695D01*
Y122187D01*
X11487Y121933D01*
X10725D01*
X11233D02*
X11741Y121425D01*
X13264Y122949D02*
X12249D01*
Y122187D01*
X12756Y122441D01*
X13010D01*
X13264Y122187D01*
Y121679D01*
X13010Y121425D01*
X12502D01*
X12249Y121679D01*
X675Y86450D02*
Y87974D01*
X1437D01*
X1691Y87720D01*
Y87212D01*
X1437Y86958D01*
X675D01*
X1183D02*
X1691Y86450D01*
X2199Y87720D02*
X2452Y87974D01*
X2960D01*
X3214Y87720D01*
Y87466D01*
X2960Y87212D01*
X3214Y86958D01*
Y86704D01*
X2960Y86450D01*
X2452D01*
X2199Y86704D01*
Y86958D01*
X2452Y87212D01*
X2199Y87466D01*
Y87720D01*
X2452Y87212D02*
X2960D01*
X14425Y94200D02*
X12901D01*
Y94962D01*
X13155Y95216D01*
X13663D01*
X13917Y94962D01*
Y94200D01*
Y94708D02*
X14425Y95216D01*
X14171Y95724D02*
X14425Y95977D01*
Y96485D01*
X14171Y96739D01*
X13155D01*
X12901Y96485D01*
Y95977D01*
X13155Y95724D01*
X13409D01*
X13663Y95977D01*
Y96739D01*
X12650Y92075D02*
X11126D01*
Y92837D01*
X11380Y93091D01*
X11888D01*
X12142Y92837D01*
Y92075D01*
Y92583D02*
X12650Y93091D01*
Y93599D02*
Y94106D01*
Y93852D01*
X11126D01*
X11380Y93599D01*
Y94868D02*
X11126Y95122D01*
Y95630D01*
X11380Y95884D01*
X12396D01*
X12650Y95630D01*
Y95122D01*
X12396Y94868D01*
X11380D01*
X17150Y88550D02*
Y90074D01*
X17912D01*
X18166Y89820D01*
Y89312D01*
X17912Y89058D01*
X17150D01*
X17658D02*
X18166Y88550D01*
X18674D02*
X19181D01*
X18927D01*
Y90074D01*
X18674Y89820D01*
X19943Y88550D02*
X20451D01*
X20197D01*
Y90074D01*
X19943Y89820D01*
X2032Y106756D02*
Y108280D01*
X2794D01*
X3048Y108026D01*
Y107518D01*
X2794Y107264D01*
X2032D01*
X2540D02*
X3048Y106756D01*
X4571Y108280D02*
X4063Y108026D01*
X3556Y107518D01*
Y107010D01*
X3809Y106756D01*
X4317D01*
X4571Y107010D01*
Y107264D01*
X4317Y107518D01*
X3556D01*
X16600Y94325D02*
X15076D01*
Y95087D01*
X15330Y95341D01*
X15838D01*
X16092Y95087D01*
Y94325D01*
Y94833D02*
X16600Y95341D01*
Y95849D02*
Y96356D01*
Y96102D01*
X15076D01*
X15330Y95849D01*
Y97118D02*
X15076Y97372D01*
Y97880D01*
X15330Y98134D01*
X15584D01*
X15838Y97880D01*
Y97626D01*
Y97880D01*
X16092Y98134D01*
X16346D01*
X16600Y97880D01*
Y97372D01*
X16346Y97118D01*
X18675Y112575D02*
X17151D01*
Y113337D01*
X17405Y113591D01*
X17913D01*
X18167Y113337D01*
Y112575D01*
Y113083D02*
X18675Y113591D01*
Y114099D02*
Y114606D01*
Y114352D01*
X17151D01*
X17405Y114099D01*
X3750Y94350D02*
Y95874D01*
X4512D01*
X4766Y95620D01*
Y95112D01*
X4512Y94858D01*
X3750D01*
X4258D02*
X4766Y94350D01*
X5273D02*
X5781D01*
X5527D01*
Y95874D01*
X5273Y95620D01*
X7559Y94350D02*
X6543D01*
X7559Y95366D01*
Y95620D01*
X7305Y95874D01*
X6797D01*
X6543Y95620D01*
X24325Y87250D02*
X22801D01*
Y88012D01*
X23055Y88266D01*
X23563D01*
X23817Y88012D01*
Y87250D01*
Y87758D02*
X24325Y88266D01*
Y88774D02*
Y89281D01*
Y89027D01*
X22801D01*
X23055Y88774D01*
X24325Y90805D02*
X22801D01*
X23563Y90043D01*
Y91059D01*
X2825Y90824D02*
X3841D01*
X3333D01*
Y89300D01*
X4349D02*
X4856D01*
X4602D01*
Y90824D01*
X4349Y90570D01*
X15316Y15722D02*
Y14199D01*
X15824Y14706D01*
X16332Y14199D01*
Y15722D01*
X16840Y14199D02*
X17348D01*
X17094D01*
Y15722D01*
X16840Y15468D01*
X18109D02*
X18363Y15722D01*
X18871D01*
X19125Y15468D01*
Y15214D01*
X18871Y14960D01*
X18617D01*
X18871D01*
X19125Y14706D01*
Y14453D01*
X18871Y14199D01*
X18363D01*
X18109Y14453D01*
X10846Y15722D02*
Y14199D01*
X11354Y14706D01*
X11861Y14199D01*
Y15722D01*
X12369Y14199D02*
X12877D01*
X12623D01*
Y15722D01*
X12369Y15468D01*
X14655Y14199D02*
X13639D01*
X14655Y15214D01*
Y15468D01*
X14401Y15722D01*
X13893D01*
X13639Y15468D01*
X6350Y15722D02*
Y14199D01*
X6858Y14706D01*
X7366Y14199D01*
Y15722D01*
X7874Y14199D02*
X8381D01*
X8127D01*
Y15722D01*
X7874Y15468D01*
X9143Y14199D02*
X9651D01*
X9397D01*
Y15722D01*
X9143Y15468D01*
X14072Y123190D02*
Y124714D01*
X14833D01*
X15087Y124460D01*
Y123952D01*
X14833Y123698D01*
X14072D01*
X14579D02*
X15087Y123190D01*
X15595Y124714D02*
X16611D01*
Y124460D01*
X15595Y123444D01*
Y123190D01*
X5816Y140995D02*
X5562Y141249D01*
X5054D01*
X4800Y140995D01*
Y139979D01*
X5054Y139725D01*
X5562D01*
X5816Y139979D01*
X6324Y139725D02*
X6831D01*
X6577D01*
Y141249D01*
X6324Y140995D01*
X10841Y119945D02*
X10587Y120199D01*
X10079D01*
X9825Y119945D01*
Y118929D01*
X10079Y118675D01*
X10587D01*
X10841Y118929D01*
X12364Y118675D02*
X11349D01*
X12364Y119691D01*
Y119945D01*
X12110Y120199D01*
X11602D01*
X11349Y119945D01*
X7791Y130545D02*
X7537Y130799D01*
X7029D01*
X6775Y130545D01*
Y129529D01*
X7029Y129275D01*
X7537D01*
X7791Y129529D01*
X9060Y129275D02*
Y130799D01*
X8299Y130037D01*
X9314D01*
X5791Y112471D02*
Y111201D01*
X6045Y110947D01*
X6553D01*
X6807Y111201D01*
Y112471D01*
X7315Y110947D02*
X7823D01*
X7569D01*
Y112471D01*
X7315Y112217D01*
X22655Y112991D02*
X22401Y112737D01*
Y112229D01*
X22655Y111975D01*
X23671D01*
X23925Y112229D01*
Y112737D01*
X23671Y112991D01*
X22655Y113499D02*
X22401Y113752D01*
Y114260D01*
X22655Y114514D01*
X22909D01*
X23163Y114260D01*
Y114006D01*
Y114260D01*
X23417Y114514D01*
X23671D01*
X23925Y114260D01*
Y113752D01*
X23671Y113499D01*
X24067Y120982D02*
X22543D01*
Y121744D01*
X22797Y121998D01*
X23305D01*
X23559Y121744D01*
Y120982D01*
Y121490D02*
X24067Y121998D01*
Y123521D02*
Y122506D01*
X23051Y123521D01*
X22797D01*
X22543Y123267D01*
Y122759D01*
X22797Y122506D01*
X25019Y-6379D02*
Y-381D01*
X0Y-6379D02*
Y-381D01*
X15937Y-6125D02*
X25019D01*
X0D02*
X8269D01*
X23495Y-5617D02*
X25019Y-6125D01*
X23495Y-6633D02*
X25019Y-6125D01*
X0D02*
X1524Y-6633D01*
X0Y-6125D02*
X1524Y-5617D01*
X-4254Y0D02*
X-381D01*
X-4254Y150114D02*
X-381D01*
X-4000Y0D02*
Y70562D01*
Y78739D02*
Y150114D01*
Y0D02*
X-3492Y1524D01*
X-4508D02*
X-4000Y0D01*
X-4508Y148590D02*
X-4000Y150114D01*
X-3492Y148590D01*
X0Y0D02*
Y150114D01*
X25019D01*
Y0D02*
Y150114D01*
X0Y0D02*
X25019D01*
D38*
X9691Y-7039D02*
X8675D01*
X9691Y-6023D01*
Y-5770D01*
X9437Y-5516D01*
X8929D01*
X8675Y-5770D01*
X11214Y-5516D02*
X10199D01*
Y-6277D01*
X10707Y-6023D01*
X10960D01*
X11214Y-6277D01*
Y-6785D01*
X10960Y-7039D01*
X10453D01*
X10199Y-6785D01*
X11722Y-7039D02*
Y-6785D01*
X11976D01*
Y-7039D01*
X11722D01*
X12992Y-5770D02*
X13246Y-5516D01*
X13754D01*
X14007Y-5770D01*
Y-6785D01*
X13754Y-7039D01*
X13246D01*
X12992Y-6785D01*
Y-5770D01*
X15531Y-7039D02*
X14515D01*
X15531Y-6023D01*
Y-5770D01*
X15277Y-5516D01*
X14769D01*
X14515Y-5770D01*
X-3086Y70969D02*
Y71477D01*
Y71223D01*
X-4609D01*
X-4355Y70969D01*
X-4609Y73254D02*
Y72238D01*
X-3848D01*
X-4102Y72746D01*
Y73000D01*
X-3848Y73254D01*
X-3340D01*
X-3086Y73000D01*
Y72492D01*
X-3340Y72238D01*
X-4355Y73762D02*
X-4609Y74016D01*
Y74524D01*
X-4355Y74778D01*
X-3340D01*
X-3086Y74524D01*
Y74016D01*
X-3340Y73762D01*
X-4355D01*
X-3086Y75285D02*
X-3340D01*
Y75539D01*
X-3086D01*
Y75285D01*
Y76555D02*
Y77063D01*
Y76809D01*
X-4609D01*
X-4355Y76555D01*
X-3086Y77825D02*
Y78332D01*
Y78078D01*
X-4609D01*
X-4355Y77825D01*
D46*
X1781Y99695D02*
G03*
X1781Y99695I-125J0D01*
G01*
Y102489D02*
G03*
X1781Y102489I-125J0D01*
G01*
Y97028D02*
G03*
X1781Y97028I-125J0D01*
G01*
X6801Y109943D02*
G03*
X6801Y109943I-125J0D01*
G01*
X8502Y134232D02*
G03*
X8502Y134232I-125J0D01*
G01*
X6930Y92350D02*
G03*
X6930Y92350I-125J0D01*
G01*
X23834Y93346D02*
G03*
X23834Y93346I-125J0D01*
G01*
Y97410D02*
G03*
X23834Y97410I-125J0D01*
G01*
Y101601D02*
G03*
X23834Y101601I-125J0D01*
G01*
Y105919D02*
G03*
X23834Y105919I-125J0D01*
G01*
X8817Y114680D02*
G03*
X8817Y114680I-125J0D01*
G01*
X13717Y114859D02*
G03*
X13717Y114859I-125J0D01*
G01*
X4350Y134225D02*
G03*
X4350Y134225I-125J0D01*
G01*
D47*
X14556Y468D02*
G03*
X15081Y470I263J2D01*
G01*
X10060Y468D02*
G03*
X10586Y470I263J2D01*
G01*
X13234Y2911D02*
G03*
X12998Y3139I-236J-8D01*
G01*
X11426Y-414D02*
G03*
X11526Y-518I100J-3D01*
G01*
X12155Y3338D02*
G03*
X11919Y3110I0J-236D01*
G01*
X13227D02*
G03*
X12991Y3338I-236J-8D01*
G01*
X12148Y3139D02*
G03*
X11912Y2911I0J-236D01*
G01*
X11701Y-518D02*
G03*
X11801Y-421I0J100D01*
G01*
X13345Y-414D02*
G03*
X13445Y-511I100J3D01*
G01*
X13620D02*
G03*
X13720Y-408I0J100D01*
G01*
X13572Y3892D02*
G03*
X13473Y3989I-100J-3D01*
G01*
X11673D02*
G03*
X11574Y3892I0J-100D01*
G01*
X13573Y4539D02*
G03*
X13673Y4639I0J100D01*
G01*
X11473D02*
G03*
X11573Y4539I100J0D01*
G01*
X12923Y4989D02*
G03*
X13023Y5089I0J100D01*
G01*
X12123D02*
G03*
X12223Y4989I100J0D01*
G01*
X10323Y5839D02*
G03*
X10423Y5739I100J0D01*
G01*
X14723D02*
G03*
X14823Y5839I0J100D01*
G01*
Y6239D02*
G03*
X14723Y6339I-100J0D01*
G01*
X10423D02*
G03*
X10323Y6239I0J-100D01*
G01*
X15268Y2939D02*
G03*
X15164Y2836I0J-103D01*
G01*
X14471Y2843D02*
G03*
X14375Y2939I-96J0D01*
G01*
X15444Y2839D02*
G03*
X15344Y2939I-100J0D01*
G01*
X14294D02*
G03*
X14194Y2839I0J-100D01*
G01*
X14560Y358D02*
G03*
X15077Y358I259J0D01*
G01*
X15344Y-511D02*
G03*
X15444Y-411I0J100D01*
G01*
X14194D02*
G03*
X14294Y-511I100J0D01*
G01*
X10772Y2939D02*
G03*
X10669Y2836I0J-103D01*
G01*
X9976Y2843D02*
G03*
X9879Y2939I-96J0D01*
G01*
X10948Y2839D02*
G03*
X10848Y2939I-100J0D01*
G01*
X9798D02*
G03*
X9698Y2839I0J-100D01*
G01*
X10064Y358D02*
G03*
X10582Y358I259J0D01*
G01*
X10848Y-511D02*
G03*
X10948Y-411I0J100D01*
G01*
X9698D02*
G03*
X9798Y-511I100J0D01*
G01*
X3556Y104479D02*
Y105579D01*
Y99045D02*
Y100345D01*
Y101839D02*
Y103139D01*
X19459Y139779D02*
X22959D01*
X19459Y133779D02*
X22959D01*
X19459D02*
Y139779D01*
X22959Y133779D02*
Y139779D01*
X20459Y135204D02*
X21959D01*
X20459Y138279D02*
X21959D01*
Y135204D02*
Y138279D01*
X20459Y135204D02*
Y138279D01*
X3556Y96378D02*
Y97678D01*
X9698Y-411D02*
Y558D01*
X15444Y2815D02*
Y2839D01*
X9223Y-1461D02*
Y281D01*
X8723Y-1461D02*
Y257D01*
X15923Y-1461D02*
Y281D01*
X16423Y3121D02*
Y4907D01*
X10423Y6339D02*
X10537D01*
X15923Y3097D02*
Y4931D01*
X9223Y3097D02*
Y4931D01*
X11526Y-518D02*
X11701D01*
X12155Y3338D02*
X12991D01*
X12148Y3139D02*
X12998D01*
X11801Y-421D02*
X11919Y3110D01*
X13227D02*
X13345Y-414D01*
X13445Y-511D02*
X13620D01*
X13572Y3892D02*
X13720Y-408D01*
X11673Y3989D02*
X13473D01*
X11426Y-414D02*
X11574Y3892D01*
X14609Y6339D02*
X14723D01*
X13023Y5089D02*
Y5102D01*
X12223Y4989D02*
X12923D01*
X12123Y5089D02*
Y5102D01*
X10323Y5839D02*
Y6239D01*
X10423Y5739D02*
X10819Y5739D01*
X11473Y4639D02*
Y5085D01*
X11573Y4539D02*
X13573D01*
X13673Y4639D02*
Y5085D01*
X14327Y5739D02*
X14723Y5739D01*
X14823Y5839D02*
Y6239D01*
X15077Y358D02*
X15165Y2843D01*
X14471D02*
X14560Y358D01*
X14294Y2939D02*
X15344D01*
X15444Y-411D02*
Y563D01*
X14294Y-511D02*
X15344D01*
X14194Y-411D02*
Y2839D01*
X10582Y358D02*
X10669Y2843D01*
X9976D02*
X10064Y358D01*
X9798Y2939D02*
X10848D01*
X10948Y-411D02*
Y2839D01*
X9798Y-511D02*
X10848D01*
X9698Y2820D02*
X9698Y2839D01*
X8723Y3121D02*
Y4907D01*
X16423Y-1461D02*
Y257D01*
X8723Y-1461D02*
X16423D01*
X8076Y98113D02*
Y109913D01*
X14276Y98113D02*
Y109913D01*
X8076D02*
X14276D01*
X8076Y98113D02*
X14276D01*
X14098Y116291D02*
Y120691D01*
X17398Y116291D02*
Y120691D01*
X17927Y137332D02*
Y140132D01*
X7727Y137332D02*
X17927D01*
X7727D02*
Y140132D01*
X1550Y88400D02*
Y91500D01*
X6550Y88400D02*
Y91500D01*
X1550Y88400D02*
X6550D01*
X1550Y91500D02*
X6550D01*
X725Y84400D02*
X1825D01*
X1700Y94400D02*
Y95500D01*
X7070Y91186D02*
X8170D01*
X10373Y88266D02*
X14773D01*
X10373Y91566D02*
X14773D01*
X9229Y94075D02*
X10329D01*
X15875Y92541D02*
Y93641D01*
X23275Y92000D02*
Y93100D01*
X19359Y93496D02*
X23059D01*
X19359Y96496D02*
X23059D01*
X19359Y97560D02*
X23059D01*
X19359Y100560D02*
X23059D01*
X19359Y101751D02*
X23059D01*
X19359Y104751D02*
X23059D01*
X19359Y106069D02*
X23059D01*
X19359Y109069D02*
X23059D01*
X16002Y110702D02*
Y111802D01*
X23368Y115376D02*
Y116526D01*
X22350Y118625D02*
X23450D01*
X9342Y114530D02*
X13042D01*
X9342Y111530D02*
X13042D01*
X9342Y114959D02*
X13042D01*
X9342Y117959D02*
X13042D01*
X12065Y123783D02*
Y124883D01*
X15319Y125504D02*
Y129004D01*
X9319Y125504D02*
Y129004D01*
X15319D01*
X9319Y125504D02*
X15319D01*
X10744Y126504D02*
Y128004D01*
X13819Y126504D02*
Y128004D01*
X10744Y126504D02*
X13819D01*
X10744Y128004D02*
X13819D01*
X4699Y128228D02*
Y129328D01*
X5969Y131378D02*
Y132528D01*
X4325Y134775D02*
Y138475D01*
X7325Y134775D02*
Y138475D01*
X20659Y129159D02*
X21759D01*
X536Y138890D02*
X4036D01*
X536Y132890D02*
X4036D01*
X536D02*
Y138890D01*
X4036Y132890D02*
Y138890D01*
X1536Y134315D02*
X3036D01*
X1536Y137390D02*
X3036D01*
Y134315D02*
Y137390D01*
X1536Y134315D02*
Y137390D01*
D48*
X19685Y114808D02*
X21717D01*
X19685Y112522D02*
X21717D01*
X19685Y109995D02*
X21717D01*
X19685D02*
Y114808D01*
X21717Y109995D02*
Y114808D01*
Y115210D02*
Y122555D01*
X19685Y115210D02*
Y122555D01*
Y115210D02*
X21717D01*
X19685Y120269D02*
X21717D01*
X19685Y122555D02*
X21717D01*
M02*
