%FSLAX43Y43*%
%MOMM*%
G71*
G01*
G75*
G04 Layer_Color=32768*
%ADD10R,0.950X1.400*%
%ADD11R,0.900X1.400*%
%ADD12R,1.600X2.100*%
%ADD13O,2.000X0.600*%
%ADD14R,3.300X1.050*%
%ADD15R,1.050X2.950*%
%ADD16R,10.600X9.000*%
%ADD17R,0.600X1.550*%
%ADD18R,1.400X0.950*%
%ADD19R,1.050X3.300*%
%ADD20R,1.800X2.250*%
%ADD21R,1.050X1.400*%
%ADD22R,1.800X2.250*%
%ADD23R,2.100X1.600*%
%ADD24R,2.250X1.800*%
%ADD25C,0.800*%
%ADD26C,1.600*%
%ADD27C,2.000*%
%ADD28C,1.000*%
%ADD29C,0.500*%
%ADD30C,0.400*%
%ADD31C,0.700*%
%ADD32C,3.000*%
%ADD33C,1.500*%
%ADD34C,1.800*%
%ADD35C,0.600*%
%ADD36R,5.000X8.175*%
%ADD37C,0.254*%
%ADD38C,0.152*%
%ADD39R,1.524X1.524*%
%ADD40R,3.064X3.064*%
%ADD41O,1.600X2.300*%
%ADD42C,1.200*%
%ADD43R,1.524X1.524*%
%ADD44C,2.032*%
%ADD45C,1.524*%
%ADD46C,0.250*%
%ADD47C,0.200*%
%ADD48C,0.305*%
%ADD49R,1.153X1.603*%
%ADD50R,1.103X1.603*%
%ADD51R,1.803X2.303*%
%ADD52O,2.203X0.803*%
%ADD53R,3.503X1.253*%
%ADD54R,1.253X3.153*%
%ADD55R,10.803X9.203*%
%ADD56R,0.803X1.753*%
%ADD57R,1.603X1.153*%
%ADD58R,1.253X3.503*%
%ADD59R,2.003X2.453*%
%ADD60R,1.253X1.603*%
%ADD61R,2.003X2.453*%
%ADD62R,2.303X1.803*%
%ADD63R,2.453X2.003*%
%ADD64R,1.727X1.727*%
%ADD65R,3.267X3.267*%
%ADD66O,1.803X2.503*%
%ADD67C,1.403*%
%ADD68R,1.727X1.727*%
%ADD69C,2.235*%
%ADD70C,1.727*%
%ADD71C,0.100*%
%ADD72C,0.050*%
D37*
X25019Y-6379D02*
Y-381D01*
X0Y-6379D02*
Y-381D01*
X15937Y-6125D02*
X25019D01*
X0D02*
X8269D01*
X23495Y-5617D02*
X25019Y-6125D01*
X23495Y-6633D02*
X25019Y-6125D01*
X0D02*
X1524Y-6633D01*
X0Y-6125D02*
X1524Y-5617D01*
X-4254Y0D02*
X-381D01*
X-4254Y150114D02*
X-381D01*
X-4000Y0D02*
Y70562D01*
Y78739D02*
Y150114D01*
Y0D02*
X-3492Y1524D01*
X-4508D02*
X-4000Y0D01*
X-4508Y148590D02*
X-4000Y150114D01*
X-3492Y148590D01*
X0Y0D02*
Y150114D01*
X25019D01*
Y0D02*
Y150114D01*
X0Y0D02*
X25019D01*
D38*
X9691Y-7039D02*
X8675D01*
X9691Y-6023D01*
Y-5770D01*
X9437Y-5516D01*
X8929D01*
X8675Y-5770D01*
X11214Y-5516D02*
X10199D01*
Y-6277D01*
X10707Y-6023D01*
X10960D01*
X11214Y-6277D01*
Y-6785D01*
X10960Y-7039D01*
X10453D01*
X10199Y-6785D01*
X11722Y-7039D02*
Y-6785D01*
X11976D01*
Y-7039D01*
X11722D01*
X12992Y-5770D02*
X13246Y-5516D01*
X13754D01*
X14007Y-5770D01*
Y-6785D01*
X13754Y-7039D01*
X13246D01*
X12992Y-6785D01*
Y-5770D01*
X15531Y-7039D02*
X14515D01*
X15531Y-6023D01*
Y-5770D01*
X15277Y-5516D01*
X14769D01*
X14515Y-5770D01*
X-3086Y70969D02*
Y71477D01*
Y71223D01*
X-4609D01*
X-4355Y70969D01*
X-4609Y73254D02*
Y72238D01*
X-3848D01*
X-4102Y72746D01*
Y73000D01*
X-3848Y73254D01*
X-3340D01*
X-3086Y73000D01*
Y72492D01*
X-3340Y72238D01*
X-4355Y73762D02*
X-4609Y74016D01*
Y74524D01*
X-4355Y74778D01*
X-3340D01*
X-3086Y74524D01*
Y74016D01*
X-3340Y73762D01*
X-4355D01*
X-3086Y75285D02*
X-3340D01*
Y75539D01*
X-3086D01*
Y75285D01*
Y76555D02*
Y77063D01*
Y76809D01*
X-4609D01*
X-4355Y76555D01*
X-3086Y77825D02*
Y78332D01*
Y78078D01*
X-4609D01*
X-4355Y77825D01*
D71*
X5576Y97963D02*
Y110063D01*
X16776Y97963D02*
Y110063D01*
X5576D02*
X16776D01*
X5576Y97963D02*
X16776D01*
X10676Y104013D02*
X11676D01*
X11176Y103513D02*
Y104513D01*
D72*
X13177Y141732D02*
G03*
X13177Y141732I-350J0D01*
G01*
X3556Y104729D02*
Y105329D01*
X3256Y105029D02*
X3856D01*
X1806Y105979D02*
X5306D01*
X1806Y104079D02*
X5306D01*
X1806D02*
Y105979D01*
X5306Y104079D02*
Y105979D01*
X1906Y98745D02*
X5206D01*
Y100645D01*
X1906D02*
X5206D01*
X1906Y98745D02*
Y100645D01*
X3556Y99195D02*
Y100195D01*
X3056Y99695D02*
X4056D01*
X1906Y101539D02*
X5206D01*
Y103439D01*
X1906D02*
X5206D01*
X1906Y101539D02*
Y103439D01*
X3556Y101989D02*
Y102989D01*
X3056Y102489D02*
X4056D01*
X19209Y142779D02*
X23209D01*
X19209Y130779D02*
Y142779D01*
Y130779D02*
X23209D01*
Y142779D01*
X1906Y96078D02*
X5206D01*
Y97978D01*
X1906D02*
X5206D01*
X1906Y96078D02*
Y97978D01*
X3556Y96528D02*
Y97528D01*
X3056Y97028D02*
X4056D01*
X15248Y118491D02*
X16248D01*
X15748Y117991D02*
Y118991D01*
X13848Y114591D02*
Y122391D01*
X17648Y114591D02*
Y122391D01*
X13848Y114591D02*
X17648D01*
X13848Y122391D02*
X17648D01*
X18377Y133682D02*
Y149782D01*
X7277D02*
X18377D01*
X7277Y133682D02*
Y149782D01*
Y133682D02*
X18377D01*
X12327Y141732D02*
X13327D01*
X12827Y141232D02*
Y142232D01*
X3550Y89950D02*
X4550D01*
X4050Y89450D02*
Y90450D01*
X1300Y86200D02*
Y93700D01*
X6800Y86200D02*
Y93700D01*
X1300Y86200D02*
X6800D01*
X1300Y93700D02*
X6800D01*
X975Y84400D02*
X1575D01*
X1275Y84100D02*
Y84700D01*
X325Y82650D02*
Y86150D01*
X2225Y82650D02*
Y86150D01*
X325Y82650D02*
X2225D01*
X325Y86150D02*
X2225D01*
X1700Y94650D02*
Y95250D01*
X1400Y94950D02*
X2000D01*
X-50Y94000D02*
X3450D01*
X-50Y95900D02*
X3450D01*
Y94000D02*
Y95900D01*
X-50Y94000D02*
Y95900D01*
X7320Y91186D02*
X7920D01*
X7620Y90886D02*
Y91486D01*
X6670Y89436D02*
Y92936D01*
X8570Y89436D02*
Y92936D01*
X6670Y89436D02*
X8570D01*
X6670Y92936D02*
X8570D01*
X12573Y89416D02*
Y90416D01*
X12073Y89916D02*
X13073D01*
X8673Y88016D02*
X16473D01*
X8673Y91816D02*
X16473D01*
Y88016D02*
Y91816D01*
X8673Y88016D02*
Y91816D01*
X9479Y94075D02*
X10079D01*
X9779Y93775D02*
Y94375D01*
X8829Y92325D02*
Y95825D01*
X10729Y92325D02*
Y95825D01*
X8829Y92325D02*
X10729D01*
X8829Y95825D02*
X10729D01*
X15875Y92791D02*
Y93391D01*
X15575Y93091D02*
X16175D01*
X14125Y94041D02*
X17625D01*
X14125Y92141D02*
X17625D01*
X14125D02*
Y94041D01*
X17625Y92141D02*
Y94041D01*
X23275Y92250D02*
Y92850D01*
X22975Y92550D02*
X23575D01*
X21525Y93500D02*
X25025D01*
X21525Y91600D02*
X25025D01*
X21525D02*
Y93500D01*
X25025Y91600D02*
Y93500D01*
X23809Y93246D02*
Y96746D01*
X18609Y93246D02*
Y96746D01*
Y93246D02*
X23809D01*
X18609Y96746D02*
X23809D01*
X20709Y94996D02*
X21709D01*
X21209Y94496D02*
Y95496D01*
X23809Y97310D02*
Y100810D01*
X18609Y97310D02*
Y100810D01*
Y97310D02*
X23809D01*
X18609Y100810D02*
X23809D01*
X20709Y99060D02*
X21709D01*
X21209Y98560D02*
Y99560D01*
X23809Y101501D02*
Y105001D01*
X18609Y101501D02*
Y105001D01*
Y101501D02*
X23809D01*
X18609Y105001D02*
X23809D01*
X20709Y103251D02*
X21709D01*
X21209Y102751D02*
Y103751D01*
X23809Y105819D02*
Y109319D01*
X18609Y105819D02*
Y109319D01*
Y105819D02*
X23809D01*
X18609Y109319D02*
X23809D01*
X20709Y107569D02*
X21709D01*
X21209Y107069D02*
Y108069D01*
X16002Y110952D02*
Y111552D01*
X15702Y111252D02*
X16302D01*
X14252Y110302D02*
X17752D01*
X14252Y112202D02*
X17752D01*
Y110302D02*
Y112202D01*
X14252Y110302D02*
Y112202D01*
X21668Y115001D02*
Y116901D01*
X23368Y115651D02*
Y116251D01*
X23068Y115951D02*
X23668D01*
X21668Y116901D02*
X25068D01*
X21668Y115001D02*
X25068D01*
Y116901D01*
X22600Y118625D02*
X23200D01*
X22900Y118325D02*
Y118925D01*
X21950Y116875D02*
Y120375D01*
X23850Y116875D02*
Y120375D01*
X21950Y116875D02*
X23850D01*
X21950Y120375D02*
X23850D01*
X8592Y111280D02*
Y114780D01*
X13792Y111280D02*
Y114780D01*
X8592D02*
X13792D01*
X8592Y111280D02*
X13792D01*
X10692Y113030D02*
X11692D01*
X11192Y112530D02*
Y113530D01*
X13792Y114709D02*
Y118209D01*
X8592Y114709D02*
Y118209D01*
Y114709D02*
X13792D01*
X8592Y118209D02*
X13792D01*
X10892Y116459D02*
X11492D01*
X11192Y116159D02*
Y116759D01*
X12065Y124033D02*
Y124633D01*
X11765Y124333D02*
X12365D01*
X10315Y123383D02*
X13815D01*
X10315Y125283D02*
X13815D01*
Y123383D02*
Y125283D01*
X10315Y123383D02*
Y125283D01*
X18319Y125254D02*
Y129254D01*
X6319D02*
X18319D01*
X6319Y125254D02*
Y129254D01*
Y125254D02*
X18319D01*
X4699Y128478D02*
Y129078D01*
X4399Y128778D02*
X4999D01*
X2949Y127828D02*
X6449D01*
X2949Y129728D02*
X6449D01*
Y127828D02*
Y129728D01*
X2949Y127828D02*
Y129728D01*
X7669Y131003D02*
Y132903D01*
X5969Y131653D02*
Y132253D01*
X5669Y131953D02*
X6269D01*
X4269Y131003D02*
X7669D01*
X4269Y132903D02*
X7669D01*
X4269Y131003D02*
Y132903D01*
X4075Y134025D02*
X7575D01*
X4075Y139225D02*
X7575D01*
X4075Y134025D02*
Y139225D01*
X7575Y134025D02*
Y139225D01*
X5825Y136325D02*
Y136925D01*
X5525Y136625D02*
X6125D01*
X20909Y129159D02*
X21509D01*
X21209Y128859D02*
Y129459D01*
X20259Y127409D02*
Y130909D01*
X22159Y127409D02*
Y130909D01*
X20259Y127409D02*
X22159D01*
X20259Y130909D02*
X22159D01*
X286Y141890D02*
X4286D01*
X286Y129890D02*
Y141890D01*
Y129890D02*
X4286D01*
Y141890D01*
M02*
