%FSLAX43Y43*%
%MOMM*%
G71*
G01*
G75*
G04 Layer_Color=16711935*
%ADD10R,0.950X1.400*%
%ADD11R,0.900X1.400*%
%ADD12R,1.600X2.100*%
%ADD13O,2.000X0.600*%
%ADD14R,3.300X1.050*%
%ADD15R,1.050X2.950*%
%ADD16R,10.600X9.000*%
%ADD17R,0.600X1.550*%
%ADD18R,1.400X0.950*%
%ADD19R,1.050X3.300*%
%ADD20R,1.800X2.250*%
%ADD21R,1.050X1.400*%
%ADD22R,1.800X2.250*%
%ADD23R,2.100X1.600*%
%ADD24R,2.250X1.800*%
%ADD25C,0.800*%
%ADD26C,1.600*%
%ADD27C,2.000*%
%ADD28C,1.000*%
%ADD29C,0.500*%
%ADD30C,0.400*%
%ADD31C,0.700*%
%ADD32C,3.000*%
%ADD33C,1.500*%
%ADD34C,1.800*%
%ADD35C,0.600*%
%ADD36R,5.000X8.175*%
%ADD37C,0.254*%
%ADD38C,0.152*%
%ADD39R,1.524X1.524*%
%ADD40R,3.064X3.064*%
%ADD41O,1.600X2.300*%
%ADD42C,1.200*%
%ADD43R,1.524X1.524*%
%ADD44C,2.032*%
%ADD45C,1.524*%
%ADD46C,0.250*%
%ADD47C,0.200*%
%ADD48C,0.305*%
%ADD49R,1.153X1.603*%
%ADD50R,1.103X1.603*%
%ADD51R,1.803X2.303*%
%ADD52O,2.203X0.803*%
%ADD53R,3.503X1.253*%
%ADD54R,1.253X3.153*%
%ADD55R,10.803X9.203*%
%ADD56R,0.803X1.753*%
%ADD57R,1.603X1.153*%
%ADD58R,1.253X3.503*%
%ADD59R,2.003X2.453*%
%ADD60R,1.253X1.603*%
%ADD61R,2.003X2.453*%
%ADD62R,2.303X1.803*%
%ADD63R,2.453X2.003*%
%ADD64R,1.727X1.727*%
%ADD65R,3.267X3.267*%
%ADD66O,1.803X2.503*%
%ADD67C,1.403*%
%ADD68R,1.727X1.727*%
%ADD69C,2.235*%
%ADD70C,1.727*%
D37*
X25019Y-6379D02*
Y-381D01*
X0Y-6379D02*
Y-381D01*
X15937Y-6125D02*
X25019D01*
X0D02*
X8269D01*
X23495Y-5617D02*
X25019Y-6125D01*
X23495Y-6633D02*
X25019Y-6125D01*
X0D02*
X1524Y-6633D01*
X0Y-6125D02*
X1524Y-5617D01*
X-4254Y0D02*
X-381D01*
X-4254Y150114D02*
X-381D01*
X-4000Y0D02*
Y70562D01*
Y78739D02*
Y150114D01*
Y0D02*
X-3492Y1524D01*
X-4508D02*
X-4000Y0D01*
X-4508Y148590D02*
X-4000Y150114D01*
X-3492Y148590D01*
X0Y0D02*
Y150114D01*
X25019D01*
Y0D02*
Y150114D01*
X0Y0D02*
X25019D01*
Y-6379D02*
Y-381D01*
X0Y-6379D02*
Y-381D01*
X15937Y-6125D02*
X25019D01*
X0D02*
X8269D01*
X23495Y-5617D02*
X25019Y-6125D01*
X23495Y-6633D02*
X25019Y-6125D01*
X0D02*
X1524Y-6633D01*
X0Y-6125D02*
X1524Y-5617D01*
X-4254Y0D02*
X-381D01*
X-4254Y150114D02*
X-381D01*
X-4000Y0D02*
Y70562D01*
Y78739D02*
Y150114D01*
Y0D02*
X-3492Y1524D01*
X-4508D02*
X-4000Y0D01*
X-4508Y148590D02*
X-4000Y150114D01*
X-3492Y148590D01*
X0Y0D02*
Y150114D01*
X25019D01*
Y0D02*
Y150114D01*
X0Y0D02*
X25019D01*
D38*
X9691Y-7039D02*
X8675D01*
X9691Y-6023D01*
Y-5770D01*
X9437Y-5516D01*
X8929D01*
X8675Y-5770D01*
X11214Y-5516D02*
X10199D01*
Y-6277D01*
X10707Y-6023D01*
X10960D01*
X11214Y-6277D01*
Y-6785D01*
X10960Y-7039D01*
X10453D01*
X10199Y-6785D01*
X11722Y-7039D02*
Y-6785D01*
X11976D01*
Y-7039D01*
X11722D01*
X12992Y-5770D02*
X13246Y-5516D01*
X13754D01*
X14007Y-5770D01*
Y-6785D01*
X13754Y-7039D01*
X13246D01*
X12992Y-6785D01*
Y-5770D01*
X15531Y-7039D02*
X14515D01*
X15531Y-6023D01*
Y-5770D01*
X15277Y-5516D01*
X14769D01*
X14515Y-5770D01*
X-3086Y70969D02*
Y71477D01*
Y71223D01*
X-4609D01*
X-4355Y70969D01*
X-4609Y73254D02*
Y72238D01*
X-3848D01*
X-4102Y72746D01*
Y73000D01*
X-3848Y73254D01*
X-3340D01*
X-3086Y73000D01*
Y72492D01*
X-3340Y72238D01*
X-4355Y73762D02*
X-4609Y74016D01*
Y74524D01*
X-4355Y74778D01*
X-3340D01*
X-3086Y74524D01*
Y74016D01*
X-3340Y73762D01*
X-4355D01*
X-3086Y75285D02*
X-3340D01*
Y75539D01*
X-3086D01*
Y75285D01*
Y76555D02*
Y77063D01*
Y76809D01*
X-4609D01*
X-4355Y76555D01*
X-3086Y77825D02*
Y78332D01*
Y78078D01*
X-4609D01*
X-4355Y77825D01*
X9691Y-7039D02*
X8675D01*
X9691Y-6023D01*
Y-5770D01*
X9437Y-5516D01*
X8929D01*
X8675Y-5770D01*
X11214Y-5516D02*
X10199D01*
Y-6277D01*
X10707Y-6023D01*
X10960D01*
X11214Y-6277D01*
Y-6785D01*
X10960Y-7039D01*
X10453D01*
X10199Y-6785D01*
X11722Y-7039D02*
Y-6785D01*
X11976D01*
Y-7039D01*
X11722D01*
X12992Y-5770D02*
X13246Y-5516D01*
X13754D01*
X14007Y-5770D01*
Y-6785D01*
X13754Y-7039D01*
X13246D01*
X12992Y-6785D01*
Y-5770D01*
X15531Y-7039D02*
X14515D01*
X15531Y-6023D01*
Y-5770D01*
X15277Y-5516D01*
X14769D01*
X14515Y-5770D01*
X-3086Y70969D02*
Y71477D01*
Y71223D01*
X-4609D01*
X-4355Y70969D01*
X-4609Y73254D02*
Y72238D01*
X-3848D01*
X-4102Y72746D01*
Y73000D01*
X-3848Y73254D01*
X-3340D01*
X-3086Y73000D01*
Y72492D01*
X-3340Y72238D01*
X-4355Y73762D02*
X-4609Y74016D01*
Y74524D01*
X-4355Y74778D01*
X-3340D01*
X-3086Y74524D01*
Y74016D01*
X-3340Y73762D01*
X-4355D01*
X-3086Y75285D02*
X-3340D01*
Y75539D01*
X-3086D01*
Y75285D01*
Y76555D02*
Y77063D01*
Y76809D01*
X-4609D01*
X-4355Y76555D01*
X-3086Y77825D02*
Y78332D01*
Y78078D01*
X-4609D01*
X-4355Y77825D01*
M02*
