M48
;Layer_Color=9474304
;FILE_FORMAT=4:3
METRIC,LZ
;TYPE=PLATED
T1F00S00C0.600
T2F00S00C0.762
T4F00S00C1.092
T5F00S00C1.800
;TYPE=NON_PLATED
%
T01
X0011773Y0006039
X0013373
X0014173Y0007239
X0012573
X0010973
T02
X0003775Y00085
X000375Y0085325
X000565Y00843
X0019304Y0085979
X002345Y0090375
X0015875Y0113411
X0018542Y0117983
X0018669Y0122301
X002335Y0134121
X002165Y01468
X002175Y0148975
X001016Y0131953
X0007475Y0117975
X00036Y014675
X00037Y0148925
T04
X0020701Y0111252
Y0113792
Y0116459
Y0118999
Y0121539
T05
X0008077Y001143
X0012573
X0017069
X000889Y0085979
X0012573
X0016383
M30
