%FSLAX43Y43*%
%MOMM*%
G71*
G01*
G75*
%ADD10R,0.950X1.400*%
%ADD11R,1.600X2.100*%
%ADD12R,1.400X0.950*%
%ADD13R,2.250X1.800*%
%ADD14R,1.050X1.400*%
%ADD15R,2.100X1.600*%
%ADD16R,1.800X2.250*%
%ADD17R,1.800X2.250*%
%ADD18R,1.400X1.050*%
%ADD19R,1.050X3.300*%
%ADD20R,0.600X1.550*%
%ADD21R,10.600X9.000*%
%ADD22R,1.050X2.950*%
%ADD23R,3.300X1.050*%
%ADD24O,2.000X0.600*%
%ADD25R,0.900X1.400*%
%ADD26C,0.500*%
%ADD27C,1.500*%
%ADD28C,0.400*%
%ADD29C,0.800*%
%ADD30C,1.600*%
%ADD31C,1.200*%
%ADD32C,0.700*%
%ADD33C,1.000*%
%ADD34C,0.600*%
%ADD35C,0.300*%
%ADD36C,2.000*%
%ADD37C,3.000*%
%ADD38C,1.800*%
%ADD39R,5.000X8.175*%
%ADD40C,0.254*%
%ADD41C,0.152*%
%ADD42C,1.524*%
%ADD43R,1.524X1.524*%
%ADD44R,1.524X1.524*%
%ADD45C,2.032*%
%ADD46C,1.200*%
%ADD47O,1.600X2.300*%
%ADD48R,3.064X3.064*%
D10*
X1100Y95025D02*
D03*
X3100D02*
D03*
X3699Y128778D02*
D03*
X5699D02*
D03*
X11065Y124333D02*
D03*
X13065D02*
D03*
X15002Y111252D02*
D03*
X17002D02*
D03*
X16875Y93091D02*
D03*
X14875D02*
D03*
X4556Y105029D02*
D03*
X2556D02*
D03*
D11*
X2286Y140540D02*
D03*
Y131240D02*
D03*
X21209Y141429D02*
D03*
Y132129D02*
D03*
D12*
Y130159D02*
D03*
Y128159D02*
D03*
X22900Y119625D02*
D03*
Y117625D02*
D03*
X21700Y90475D02*
D03*
Y92475D02*
D03*
X9779Y95075D02*
D03*
Y93075D02*
D03*
X7620Y92186D02*
D03*
Y90186D02*
D03*
X1450Y85400D02*
D03*
Y83400D02*
D03*
D13*
X5825Y138075D02*
D03*
Y135175D02*
D03*
D14*
X6869Y131953D02*
D03*
X5069D02*
D03*
D15*
X16969Y127254D02*
D03*
X7669D02*
D03*
D16*
X9742Y116459D02*
D03*
X12642D02*
D03*
D17*
Y113030D02*
D03*
X9742D02*
D03*
X19759Y107569D02*
D03*
X22659D02*
D03*
X19759Y103251D02*
D03*
X22659D02*
D03*
X19759Y99060D02*
D03*
X22659D02*
D03*
X19759Y94996D02*
D03*
X22659D02*
D03*
D18*
X22900Y116050D02*
D03*
Y114250D02*
D03*
D19*
X9473Y89916D02*
D03*
X15673D02*
D03*
D20*
X5955Y92650D02*
D03*
X4685D02*
D03*
X3415D02*
D03*
X2145D02*
D03*
X5955Y87250D02*
D03*
X4685D02*
D03*
X3415D02*
D03*
X2145D02*
D03*
D21*
X12827Y144982D02*
D03*
D22*
X16227Y135432D02*
D03*
X14527D02*
D03*
X12827D02*
D03*
X11127D02*
D03*
X9427D02*
D03*
D23*
X15748Y121591D02*
D03*
Y115391D02*
D03*
D24*
X15676Y98933D02*
D03*
Y100203D02*
D03*
Y101473D02*
D03*
Y102743D02*
D03*
Y104013D02*
D03*
Y105283D02*
D03*
Y106553D02*
D03*
Y107823D02*
D03*
Y109093D02*
D03*
X6676Y98933D02*
D03*
Y100203D02*
D03*
Y101473D02*
D03*
Y102743D02*
D03*
Y104013D02*
D03*
Y105283D02*
D03*
Y106553D02*
D03*
Y107823D02*
D03*
Y109093D02*
D03*
D25*
X2700Y97225D02*
D03*
X4600D02*
D03*
X2706Y102539D02*
D03*
X4606D02*
D03*
X2706Y99720D02*
D03*
X4606D02*
D03*
D40*
X-4254Y0D02*
X-381D01*
X-4254Y150114D02*
X-381D01*
X-4000Y0D02*
Y70562D01*
Y78739D02*
Y150114D01*
Y0D02*
X-3492Y1524D01*
X-4508D02*
X-4000Y0D01*
X-4508Y148590D02*
X-4000Y150114D01*
X-3492Y148590D01*
X25019Y-6379D02*
Y-381D01*
X0Y-6379D02*
Y-381D01*
X15937Y-6125D02*
X25019D01*
X0D02*
X8269D01*
X23495Y-5617D02*
X25019Y-6125D01*
X23495Y-6633D02*
X25019Y-6125D01*
X0D02*
X1524Y-6633D01*
X0Y-6125D02*
X1524Y-5617D01*
X0Y0D02*
X25019D01*
Y150114D01*
X0D02*
X25019D01*
X0Y0D02*
Y150114D01*
D41*
X-3086Y70969D02*
Y71477D01*
Y71223D01*
X-4609D01*
X-4355Y70969D01*
X-4609Y73254D02*
Y72238D01*
X-3848D01*
X-4102Y72746D01*
Y73000D01*
X-3848Y73254D01*
X-3340D01*
X-3086Y73000D01*
Y72492D01*
X-3340Y72238D01*
X-4355Y73762D02*
X-4609Y74016D01*
Y74524D01*
X-4355Y74778D01*
X-3340D01*
X-3086Y74524D01*
Y74016D01*
X-3340Y73762D01*
X-4355D01*
X-3086Y75285D02*
X-3340D01*
Y75539D01*
X-3086D01*
Y75285D01*
Y76555D02*
Y77063D01*
Y76809D01*
X-4609D01*
X-4355Y76555D01*
X-3086Y77825D02*
Y78332D01*
Y78078D01*
X-4609D01*
X-4355Y77825D01*
X9691Y-7039D02*
X8675D01*
X9691Y-6023D01*
Y-5770D01*
X9437Y-5516D01*
X8929D01*
X8675Y-5770D01*
X11214Y-5516D02*
X10199D01*
Y-6277D01*
X10707Y-6023D01*
X10960D01*
X11214Y-6277D01*
Y-6785D01*
X10960Y-7039D01*
X10453D01*
X10199Y-6785D01*
X11722Y-7039D02*
Y-6785D01*
X11976D01*
Y-7039D01*
X11722D01*
X12992Y-5770D02*
X13246Y-5516D01*
X13754D01*
X14007Y-5770D01*
Y-6785D01*
X13754Y-7039D01*
X13246D01*
X12992Y-6785D01*
Y-5770D01*
X15531Y-7039D02*
X14515D01*
X15531Y-6023D01*
Y-5770D01*
X15277Y-5516D01*
X14769D01*
X14515Y-5770D01*
D42*
X23350Y134121D02*
D03*
X3775Y8500D02*
D03*
X5650Y84300D02*
D03*
X23450Y90375D02*
D03*
X21650Y146800D02*
D03*
X21750Y148975D02*
D03*
X3700Y148925D02*
D03*
X3600Y146750D02*
D03*
X18669Y122301D02*
D03*
X18542Y117983D02*
D03*
X7475Y117975D02*
D03*
X3750Y85325D02*
D03*
X19304Y85979D02*
D03*
X10160Y131953D02*
D03*
X15875Y113411D02*
D03*
D43*
X12443Y73136D02*
D03*
Y53578D02*
D03*
Y34020D02*
D03*
Y24876D02*
D03*
D44*
X20701Y121539D02*
D03*
Y113792D02*
D03*
D45*
Y118999D02*
D03*
Y116459D02*
D03*
Y111252D02*
D03*
D46*
X14173Y7239D02*
D03*
X13373Y6039D02*
D03*
X12573Y7239D02*
D03*
X11773Y6039D02*
D03*
X10973Y7239D02*
D03*
D47*
X16223Y6339D02*
D03*
X8923D02*
D03*
X16223Y1689D02*
D03*
X8923D02*
D03*
D48*
X8077Y11430D02*
D03*
X12573D02*
D03*
X17069D02*
D03*
X8890Y85979D02*
D03*
X12573D02*
D03*
X16383D02*
D03*
M02*
