%FSLAX43Y43*%
%MOMM*%
G71*
G01*
G75*
G04 Layer_Color=8388736*
%ADD10R,0.950X1.400*%
%ADD11R,1.600X2.100*%
%ADD12R,1.400X0.950*%
%ADD13R,2.250X1.800*%
%ADD14R,1.050X1.400*%
%ADD15R,2.100X1.600*%
%ADD16R,1.800X2.250*%
%ADD17R,1.800X2.250*%
%ADD18R,1.400X1.050*%
%ADD19R,1.050X3.300*%
%ADD20R,0.600X1.550*%
%ADD21R,10.600X9.000*%
%ADD22R,1.050X2.950*%
%ADD23R,3.300X1.050*%
%ADD24O,2.000X0.600*%
%ADD25R,0.900X1.400*%
%ADD26C,0.500*%
%ADD27C,1.500*%
%ADD28C,0.400*%
%ADD29C,0.800*%
%ADD30C,1.600*%
%ADD31C,1.200*%
%ADD32C,0.700*%
%ADD33C,1.000*%
%ADD34C,0.600*%
%ADD35C,0.300*%
%ADD36C,2.000*%
%ADD37C,3.000*%
%ADD38C,1.800*%
%ADD39R,5.000X8.175*%
%ADD40C,0.254*%
%ADD41C,0.152*%
%ADD42C,1.524*%
%ADD43R,1.524X1.524*%
%ADD44R,1.524X1.524*%
%ADD45C,2.032*%
%ADD46C,1.200*%
%ADD47O,1.600X2.300*%
%ADD48R,3.064X3.064*%
%ADD49C,0.250*%
%ADD50C,0.200*%
%ADD51C,0.305*%
%ADD52R,1.153X1.603*%
%ADD53R,1.803X2.303*%
%ADD54R,1.603X1.153*%
%ADD55R,2.453X2.003*%
%ADD56R,1.253X1.603*%
%ADD57R,2.303X1.803*%
%ADD58R,2.003X2.453*%
%ADD59R,2.003X2.453*%
%ADD60R,1.603X1.253*%
%ADD61R,1.253X3.503*%
%ADD62R,0.803X1.753*%
%ADD63R,10.803X9.203*%
%ADD64R,1.253X3.153*%
%ADD65R,3.503X1.253*%
%ADD66O,2.203X0.803*%
%ADD67R,1.103X1.603*%
%ADD68C,1.727*%
%ADD69R,1.727X1.727*%
%ADD70R,1.727X1.727*%
%ADD71C,2.235*%
%ADD72C,1.403*%
%ADD73O,1.803X2.503*%
%ADD74R,3.267X3.267*%
%ADD75C,0.100*%
D40*
X-4254Y0D02*
X-381D01*
X-4254Y150114D02*
X-381D01*
X-4000Y0D02*
Y70562D01*
Y78739D02*
Y150114D01*
Y0D02*
X-3492Y1524D01*
X-4508D02*
X-4000Y0D01*
X-4508Y148590D02*
X-4000Y150114D01*
X-3492Y148590D01*
X25019Y-6379D02*
Y-381D01*
X0Y-6379D02*
Y-381D01*
X15937Y-6125D02*
X25019D01*
X0D02*
X8269D01*
X23495Y-5617D02*
X25019Y-6125D01*
X23495Y-6633D02*
X25019Y-6125D01*
X0D02*
X1524Y-6633D01*
X0Y-6125D02*
X1524Y-5617D01*
X0Y0D02*
X25019D01*
Y150114D01*
X0D02*
X25019D01*
X0Y0D02*
Y150114D01*
D41*
X-3086Y70969D02*
Y71477D01*
Y71223D01*
X-4609D01*
X-4355Y70969D01*
X-4609Y73254D02*
Y72238D01*
X-3848D01*
X-4102Y72746D01*
Y73000D01*
X-3848Y73254D01*
X-3340D01*
X-3086Y73000D01*
Y72492D01*
X-3340Y72238D01*
X-4355Y73762D02*
X-4609Y74016D01*
Y74524D01*
X-4355Y74778D01*
X-3340D01*
X-3086Y74524D01*
Y74016D01*
X-3340Y73762D01*
X-4355D01*
X-3086Y75285D02*
X-3340D01*
Y75539D01*
X-3086D01*
Y75285D01*
Y76555D02*
Y77063D01*
Y76809D01*
X-4609D01*
X-4355Y76555D01*
X-3086Y77825D02*
Y78332D01*
Y78078D01*
X-4609D01*
X-4355Y77825D01*
X9691Y-7039D02*
X8675D01*
X9691Y-6023D01*
Y-5770D01*
X9437Y-5516D01*
X8929D01*
X8675Y-5770D01*
X11214Y-5516D02*
X10199D01*
Y-6277D01*
X10707Y-6023D01*
X10960D01*
X11214Y-6277D01*
Y-6785D01*
X10960Y-7039D01*
X10453D01*
X10199Y-6785D01*
X11722Y-7039D02*
Y-6785D01*
X11976D01*
Y-7039D01*
X11722D01*
X12992Y-5770D02*
X13246Y-5516D01*
X13754D01*
X14007Y-5770D01*
Y-6785D01*
X13754Y-7039D01*
X13246D01*
X12992Y-6785D01*
Y-5770D01*
X15531Y-7039D02*
X14515D01*
X15531Y-6023D01*
Y-5770D01*
X15277Y-5516D01*
X14769D01*
X14515Y-5770D01*
D75*
X6300Y90775D02*
G03*
X6300Y90775I-500J0D01*
G01*
X16648Y6384D02*
G03*
X16423Y6744I-400J0D01*
G01*
X16423Y5934D02*
G03*
X16648Y6294I-175J360D01*
G01*
Y1734D02*
G03*
X16423Y2094I-400J0D01*
G01*
X16423Y1284D02*
G03*
X16648Y1644I-175J360D01*
G01*
X8498D02*
G03*
X8723Y1284I400J0D01*
G01*
X8723Y2094D02*
G03*
X8498Y1734I175J-360D01*
G01*
Y6294D02*
G03*
X8723Y5934I400J0D01*
G01*
X8723Y6744D02*
G03*
X8498Y6384I175J-360D01*
G01*
X14556Y468D02*
G03*
X15081Y470I263J2D01*
G01*
X10060Y468D02*
G03*
X10586Y470I263J2D01*
G01*
X13227Y3110D02*
G03*
X12991Y3338I-236J-8D01*
G01*
X13234Y2911D02*
G03*
X12998Y3139I-236J-8D01*
G01*
X12155Y3338D02*
G03*
X11919Y3110I0J-236D01*
G01*
X12148Y3139D02*
G03*
X11912Y2911I0J-236D01*
G01*
X11701Y-518D02*
G03*
X11801Y-421I0J100D01*
G01*
X11426Y-414D02*
G03*
X11526Y-518I100J-3D01*
G01*
X13345Y-414D02*
G03*
X13445Y-511I100J3D01*
G01*
X13620D02*
G03*
X13720Y-408I0J100D01*
G01*
X13572Y3892D02*
G03*
X13473Y3989I-100J-3D01*
G01*
X11673D02*
G03*
X11574Y3892I0J-100D01*
G01*
X13123Y6339D02*
G03*
X13023Y6239I0J-100D01*
G01*
X12123D02*
G03*
X12023Y6339I-100J0D01*
G01*
X12123Y5089D02*
G03*
X12223Y4989I100J0D01*
G01*
X12923D02*
G03*
X13023Y5089I0J100D01*
G01*
X13773Y5739D02*
G03*
X13673Y5639I0J-100D01*
G01*
X14723Y5739D02*
G03*
X14823Y5839I0J100D01*
G01*
Y6239D02*
G03*
X14723Y6339I-100J0D01*
G01*
X10423D02*
G03*
X10323Y6239I0J-100D01*
G01*
Y5839D02*
G03*
X10423Y5739I100J0D01*
G01*
X11473Y5639D02*
G03*
X11373Y5739I-100J0D01*
G01*
X13573Y4539D02*
G03*
X13673Y4639I0J100D01*
G01*
X11473D02*
G03*
X11573Y4539I100J0D01*
G01*
X15268Y2939D02*
G03*
X15164Y2836I0J-103D01*
G01*
X14471Y2843D02*
G03*
X14375Y2939I-96J0D01*
G01*
X15444Y2839D02*
G03*
X15344Y2939I-100J0D01*
G01*
X14294D02*
G03*
X14194Y2839I0J-100D01*
G01*
X14560Y358D02*
G03*
X15077Y358I259J0D01*
G01*
X15344Y-511D02*
G03*
X15444Y-411I0J100D01*
G01*
X14194D02*
G03*
X14294Y-511I100J0D01*
G01*
X10772Y2939D02*
G03*
X10669Y2836I0J-103D01*
G01*
X9976Y2843D02*
G03*
X9879Y2939I-96J0D01*
G01*
X10948Y2839D02*
G03*
X10848Y2939I-100J0D01*
G01*
X9798D02*
G03*
X9698Y2839I0J-100D01*
G01*
X10064Y358D02*
G03*
X10582Y358I259J0D01*
G01*
X10848Y-511D02*
G03*
X10948Y-411I0J100D01*
G01*
X9698D02*
G03*
X9798Y-511I100J0D01*
G01*
X450Y94175D02*
X3750D01*
Y95875D01*
X450D02*
X3750D01*
X450Y94175D02*
Y95875D01*
X1536Y134315D02*
X3036D01*
X1536Y137390D02*
X3036D01*
Y134315D02*
Y137390D01*
X1536Y134315D02*
Y137390D01*
X536Y138890D02*
X4036D01*
Y132890D02*
Y138890D01*
X536Y132890D02*
X4036D01*
X536D02*
Y138890D01*
X20359Y127509D02*
Y130809D01*
Y127509D02*
X22059D01*
Y130809D01*
X20359D02*
X22059D01*
X4325Y134825D02*
X7325D01*
X4325Y134900D02*
X7325D01*
X4325Y134975D02*
X7325D01*
X4325Y135050D02*
X7325D01*
X4325Y135125D02*
X7325D01*
X4325Y135200D02*
X7325D01*
X4325Y135275D02*
X7325D01*
X4325Y135350D02*
X7325D01*
X4325Y135425D02*
X7325D01*
X4325Y134775D02*
X7325D01*
X4325D02*
Y138475D01*
X7325D01*
Y134775D02*
Y138475D01*
X4369Y131103D02*
Y132803D01*
X7569D01*
Y131103D02*
Y132803D01*
X4369Y131103D02*
X7569D01*
X3049Y127928D02*
X6349D01*
Y129628D01*
X3049D02*
X6349D01*
X3049Y127928D02*
Y129628D01*
X10744Y126504D02*
Y128004D01*
X13819Y126504D02*
Y128004D01*
X10744Y126504D02*
X13819D01*
X10744Y128004D02*
X13819D01*
X15319Y125504D02*
Y129004D01*
X9319Y125504D02*
X15319D01*
X9319D02*
Y129004D01*
X15319D01*
X10415Y123483D02*
X13715D01*
Y125183D01*
X10415D02*
X13715D01*
X10415Y123483D02*
Y125183D01*
X12992Y114959D02*
Y117959D01*
X12917Y114959D02*
Y117959D01*
X12842Y114959D02*
Y117959D01*
X12767Y114959D02*
Y117959D01*
X12692Y114959D02*
Y117959D01*
X12617Y114959D02*
Y117959D01*
X12542Y114959D02*
Y117959D01*
X12467Y114959D02*
Y117959D01*
X12392Y114959D02*
Y117959D01*
X13042Y114959D02*
Y117959D01*
X9342Y114959D02*
X13042D01*
X9342D02*
Y117959D01*
X13042D01*
X9392Y111530D02*
Y114530D01*
X9467Y111530D02*
Y114530D01*
X9542Y111530D02*
Y114530D01*
X9617Y111530D02*
Y114530D01*
X9692Y111530D02*
Y114530D01*
X9767Y111530D02*
Y114530D01*
X9842Y111530D02*
Y114530D01*
X9342Y111530D02*
X13042D01*
X9342Y114530D02*
X13042D01*
Y111530D02*
Y114530D01*
X9342Y111530D02*
Y114530D01*
X22050Y116975D02*
Y120275D01*
Y116975D02*
X23750D01*
Y120275D01*
X22050D02*
X23750D01*
X22050Y113550D02*
X23750D01*
X22050D02*
Y116750D01*
X23750D01*
Y113550D02*
Y116750D01*
X14352Y110402D02*
X17652D01*
Y112102D01*
X14352D02*
X17652D01*
X14352Y110402D02*
Y112102D01*
X23009Y106069D02*
Y109069D01*
X22934Y106069D02*
Y109069D01*
X22859Y106069D02*
Y109069D01*
X22784Y106069D02*
Y109069D01*
X22709Y106069D02*
Y109069D01*
X22634Y106069D02*
Y109069D01*
X22559Y106069D02*
Y109069D01*
X19359D02*
X23059D01*
X19359Y106069D02*
X23059D01*
X19359D02*
Y109069D01*
X23059Y106069D02*
Y109069D01*
X23009Y101751D02*
Y104751D01*
X22934Y101751D02*
Y104751D01*
X22859Y101751D02*
Y104751D01*
X22784Y101751D02*
Y104751D01*
X22709Y101751D02*
Y104751D01*
X22634Y101751D02*
Y104751D01*
X22559Y101751D02*
Y104751D01*
X19359D02*
X23059D01*
X19359Y101751D02*
X23059D01*
X19359D02*
Y104751D01*
X23059Y101751D02*
Y104751D01*
X23009Y97560D02*
Y100560D01*
X22934Y97560D02*
Y100560D01*
X22859Y97560D02*
Y100560D01*
X22784Y97560D02*
Y100560D01*
X22709Y97560D02*
Y100560D01*
X22634Y97560D02*
Y100560D01*
X22559Y97560D02*
Y100560D01*
X19359D02*
X23059D01*
X19359Y97560D02*
X23059D01*
X19359D02*
Y100560D01*
X23059Y97560D02*
Y100560D01*
X23009Y93496D02*
Y96496D01*
X22934Y93496D02*
Y96496D01*
X22859Y93496D02*
Y96496D01*
X22784Y93496D02*
Y96496D01*
X22709Y93496D02*
Y96496D01*
X22634Y93496D02*
Y96496D01*
X22559Y93496D02*
Y96496D01*
X19359D02*
X23059D01*
X19359Y93496D02*
X23059D01*
X19359D02*
Y96496D01*
X23059Y93496D02*
Y96496D01*
X22550Y89825D02*
Y93125D01*
X20850D02*
X22550D01*
X20850Y89825D02*
Y93125D01*
Y89825D02*
X22550D01*
X14225Y93941D02*
X17525D01*
X14225Y92241D02*
Y93941D01*
Y92241D02*
X17525D01*
Y93941D01*
X8929Y92425D02*
Y95725D01*
Y92425D02*
X10629D01*
Y95725D01*
X8929D02*
X10629D01*
X9323Y88266D02*
Y91566D01*
X15823Y88266D02*
Y91566D01*
X9323D02*
X15823D01*
X9323Y88266D02*
X15823D01*
X6770Y89536D02*
Y92836D01*
Y89536D02*
X8470D01*
Y92836D01*
X6770D02*
X8470D01*
X600Y82750D02*
Y86050D01*
Y82750D02*
X2300D01*
Y86050D01*
X600D02*
X2300D01*
X6550Y87950D02*
Y91950D01*
X1550D02*
X6550D01*
X1550Y87950D02*
Y91950D01*
Y87950D02*
X6550D01*
X7715Y147184D02*
Y147686D01*
X8844Y148704D01*
X16811D01*
X17939Y147686D01*
Y147184D02*
Y147686D01*
X7715Y138294D02*
X17939D01*
X7715D02*
Y147184D01*
X17939D01*
Y138294D02*
Y147184D01*
X14098Y121741D02*
X17398D01*
X14098Y115241D02*
X17398D01*
Y121741D01*
X14098Y115241D02*
Y121741D01*
X15923Y-1461D02*
Y6939D01*
X9223Y-1461D02*
Y6939D01*
X14373D02*
Y7364D01*
X13973D02*
X14373D01*
X13973Y6939D02*
Y7364D01*
X12773Y6939D02*
Y7364D01*
X12373D02*
X12773D01*
X12373Y6939D02*
Y7364D01*
X11173Y6939D02*
Y7364D01*
X10773D02*
X11173D01*
X10773Y6939D02*
Y7364D01*
X16648Y6294D02*
Y6384D01*
Y1644D02*
Y1734D01*
X8498Y1644D02*
Y1734D01*
Y6294D02*
Y6384D01*
X11526Y-518D02*
X11701D01*
X12155Y3338D02*
X12991D01*
X12148Y3139D02*
X12998D01*
X11801Y-421D02*
X11919Y3110D01*
X13227D02*
X13345Y-414D01*
X13445Y-511D02*
X13620D01*
X13572Y3892D02*
X13720Y-408D01*
X11673Y3989D02*
X13473D01*
X11426Y-414D02*
X11574Y3892D01*
X10423Y6339D02*
X14723D01*
X13023Y5089D02*
X13023Y6239D01*
X12223Y4989D02*
X12923D01*
X12123Y6239D02*
X12123Y5089D01*
X10323Y5839D02*
Y6239D01*
X10423Y5739D02*
X11373D01*
X11473Y5639D02*
X11473Y4639D01*
X11573Y4539D02*
X13573D01*
X13673Y4639D02*
X13673Y5639D01*
X13773Y5739D02*
X14723D01*
X14823Y5839D02*
Y6239D01*
X15077Y358D02*
X15165Y2843D01*
X14471D02*
X14560Y358D01*
X14294Y2939D02*
X15344D01*
X15444Y-411D02*
Y2839D01*
X14294Y-511D02*
X15344D01*
X14194Y-411D02*
Y2839D01*
X10582Y358D02*
X10669Y2843D01*
X9976D02*
X10064Y358D01*
X9798Y2939D02*
X10848D01*
X10948Y-411D02*
Y2839D01*
X9798Y-511D02*
X10848D01*
X9698Y-411D02*
Y2839D01*
X8723Y-1461D02*
Y6939D01*
X16423D01*
Y-1461D02*
Y6939D01*
X8723Y-1461D02*
X16423D01*
X2750Y96325D02*
Y98125D01*
X2650Y96325D02*
Y98125D01*
X2550Y96325D02*
Y98125D01*
X2450Y96325D02*
Y98125D01*
X2350Y96325D02*
Y98125D01*
X2250Y96325D02*
Y98125D01*
X2150Y96325D02*
Y98125D01*
X2050Y96325D02*
Y98125D01*
X5250D01*
Y96325D02*
Y98125D01*
X2050Y96325D02*
X5250D01*
X20459Y135204D02*
X21959D01*
X20459Y138279D02*
X21959D01*
Y135204D02*
Y138279D01*
X20459Y135204D02*
Y138279D01*
X19459Y139779D02*
X22959D01*
Y133779D02*
Y139779D01*
X19459Y133779D02*
X22959D01*
X19459D02*
Y139779D01*
X2756Y101639D02*
Y103439D01*
X2656Y101639D02*
Y103439D01*
X2556Y101639D02*
Y103439D01*
X2456Y101639D02*
Y103439D01*
X2356Y101639D02*
Y103439D01*
X2256Y101639D02*
Y103439D01*
X2156Y101639D02*
Y103439D01*
X2056Y101639D02*
Y103439D01*
X5256D01*
Y101639D02*
Y103439D01*
X2056Y101639D02*
X5256D01*
X2756Y98820D02*
Y100620D01*
X2656Y98820D02*
Y100620D01*
X2556Y98820D02*
Y100620D01*
X2456Y98820D02*
Y100620D01*
X2356Y98820D02*
Y100620D01*
X2256Y98820D02*
Y100620D01*
X2156Y98820D02*
Y100620D01*
X2056Y98820D02*
Y100620D01*
X5256D01*
Y98820D02*
Y100620D01*
X2056Y98820D02*
X5256D01*
X1906Y105879D02*
X5206D01*
X1906Y104179D02*
Y105879D01*
Y104179D02*
X5206D01*
Y105879D01*
M02*
